<?xml version="1.0" standalone="no"?><!DOCTYPE svg PUBLIC "-//W3C//DTD SVG 1.1//EN" "http://www.w3.org/Graphics/SVG/1.1/DTD/svg11.dtd"><svg t="1568001108105" class="icon" viewBox="0 0 1024 1024" version="1.1" xmlns="http://www.w3.org/2000/svg" p-id="2992" xmlns:xlink="http://www.w3.org/1999/xlink" width="32" height="32"><defs><style type="text/css"></style></defs><path d="M511.998031 0.003938a511.998031 511.998031 0 1 0 511.998031 511.998031A509.989423 509.989423 0 0 0 511.998031 0.003938z m227.642201 688.361661a38.006008 38.006008 0 0 1 0 56.91055 41.274918 41.274918 0 0 1-56.91055 0L511.998031 574.426345l-170.771036 170.692266a41.274918 41.274918 0 0 1-56.91055 0 38.045392 38.045392 0 0 1 0-56.91055l170.771035-170.652882-170.771035-170.692267a40.211538 40.211538 0 0 1 56.91055-56.871166L511.998031 460.802166l170.731651-170.652882a40.211538 40.211538 0 0 1 56.91055 56.871166l-170.731651 170.692266z m0 0" fill="#CCCCCC" p-id="2993"></path></svg>